<?xml version="1.0" encoding="UTF-8" standalone="no"?>
<!-- Generator: Adobe Illustrator 16.0.0, SVG Export Plug-In . SVG Version: 6.00 Build 0)  -->

<svg
   version="1.1"
   id="Layer_1"
   x="0px"
   y="0px"
   width="106"
   height="106"
   viewBox="0 0 106 106"
   enable-background="new 0 0 472 106"
   xml:space="preserve"
   sodipodi:docname="Acadia_University_Wordmark_2014-logo-only.svg"
   inkscape:version="1.2.2 (b0a8486541, 2022-12-01)"
   xmlns:inkscape="http://www.inkscape.org/namespaces/inkscape"
   xmlns:sodipodi="http://sodipodi.sourceforge.net/DTD/sodipodi-0.dtd"
   xmlns:xlink="http://www.w3.org/1999/xlink"
   xmlns="http://www.w3.org/2000/svg"
   xmlns:svg="http://www.w3.org/2000/svg"><defs
   id="defs186" /><sodipodi:namedview
   id="namedview184"
   pagecolor="#505050"
   bordercolor="#ffffff"
   borderopacity="1"
   inkscape:showpageshadow="0"
   inkscape:pageopacity="0"
   inkscape:pagecheckerboard="1"
   inkscape:deskcolor="#505050"
   showgrid="false"
   inkscape:zoom="2.2264151"
   inkscape:cx="56.817797"
   inkscape:cy="53"
   inkscape:window-width="841"
   inkscape:window-height="960"
   inkscape:window-x="0"
   inkscape:window-y="0"
   inkscape:window-maximized="1"
   inkscape:current-layer="g181" />
<g
   id="g181">
	<g
   id="g119">
		<defs
   id="defs112">
			<rect
   id="SVGID_1_"
   x="14.081"
   y="12.16"
   width="447.88"
   height="84.596001" />
		</defs>
		<clipPath
   id="SVGID_2_">
			<use
   xlink:href="#SVGID_1_"
   overflow="visible"
   id="use114" />
		</clipPath>
		<path
   clip-path="url(#SVGID_2_)"
   fill="#ffffff"
   d="M 87.254,14.188 87.248,48.48 c 0,33.077 -31.448,46.25 -35.585,46.25 -4.137,0 -35.584,-13.173 -35.588,-46.25 L 16.065,14.2 87.254,14.188 m 0,-2.028 v 0 l -71.189,0.013 c -0.538,0 -1.053,0.214 -1.433,0.594 -0.38,0.38 -0.594,0.896 -0.594,1.433 l 0.01,34.28 c 0.002,18.219 9.206,30.201 16.926,37.046 8.437,7.477 17.811,11.229 20.689,11.229 2.878,0 12.253,-3.753 20.688,-11.229 7.721,-6.845 16.923,-18.827 16.923,-37.046 l 0.007,-34.293 c 0,-0.537 -0.214,-1.053 -0.594,-1.433 -0.38,-0.38 -0.895,-0.594 -1.433,-0.594"
   id="path117" />
	</g>
	
	
	<g
   id="g179">
		
		
		
		
		
		
		
		
		
		
		<path
   fill-rule="evenodd"
   clip-rule="evenodd"
   fill="#9b2424"
   d="m 16.065,14.2 0.01,34.28 c 0.004,33.077 31.451,46.25 35.588,46.25 4.137,0 35.584,-13.173 35.584,-46.25 l 0.007,-34.293 z"
   id="path157" />
		<path
   fill-rule="evenodd"
   clip-rule="evenodd"
   fill="#1c3b66"
   d="m 51.721,14.194 -35.656,0.006 0.01,34.28 c 0.003,33.078 31.45,46.25 35.588,46.25 z"
   id="path159" />
		<path
   fill="#ffffff"
   d="m 81.958,36.756 c -1.325,2.989 -2.709,4.246 -5.384,5.974 L 74.897,41.322 73.767,40.36 73.39,40.039 73.281,39.947 73.246,39.911 c -1.02,-0.863 -1.553,-1.656 -1.92,-2.531 -0.384,-0.906 -0.591,-1.9 -0.946,-3.13 l -0.071,-0.239 h -0.245 c -0.128,0.003 -0.288,0.003 -0.462,0 l -0.316,-0.006 -0.016,0.317 c -0.009,0.116 -0.019,0.259 -0.041,0.41 -0.126,0.858 -0.574,1.633 -1.167,2.362 -0.3,0.365 -0.627,0.714 -0.96,1.047 -0.34,0.34 -0.681,0.666 -1.001,0.979 -2.095,2.078 -4.068,4.274 -5.988,6.515 -1.919,2.233 -3.785,4.509 -5.679,6.754 l -0.186,0.223 0.196,0.21 c 2.418,2.637 6.062,6.649 9.395,10.468 2.394,2.748 4.423,6.039 6.153,9.269 0.547,0.865 0.718,2.089 0.065,2.794 l -1.293,0.988 c -1.161,0.694 -1.881,0.043 -2.043,-1.138 -0.749,-2.222 -1.411,-3.798 -2.904,-5.592 -0.572,-0.682 -1.184,-1.339 -1.871,-2.237 -1.721,-2.236 -2.664,-3.531 -4.479,-5.693 -1.228,-1.465 -3.669,-4.081 -5.564,-6.09 l -0.24,-0.25 -0.237,0.25 c -1.9,2.011 -4.34,4.625 -5.567,6.09 -1.814,2.162 -2.758,3.457 -4.479,5.693 -0.688,0.898 -1.3,1.555 -1.871,2.237 -1.494,1.794 -2.158,3.37 -2.891,5.532 -0.175,1.244 -0.902,1.892 -2.056,1.198 l -1.293,-0.988 c -0.653,-0.705 -0.483,-1.929 0.064,-2.794 1.73,-3.23 3.759,-6.521 6.153,-9.269 3.331,-3.822 6.986,-7.837 9.398,-10.472 l 0.199,-0.21 -0.188,-0.222 C 47.003,50.141 45.132,47.865 43.215,45.632 41.291,43.391 39.32,41.197 37.223,39.12 36.905,38.807 36.562,38.481 36.225,38.141 35.89,37.808 35.563,37.459 35.262,37.094 34.671,36.365 34.222,35.59 34.099,34.732 34.075,34.581 34.062,34.438 34.057,34.322 l -0.017,-0.317 -0.316,0.006 c -0.176,0.003 -0.335,0.003 -0.46,0 h -0.249 l -0.07,0.239 c -0.354,1.23 -0.562,2.224 -0.944,3.13 -0.364,0.875 -0.899,1.668 -1.921,2.531 l -0.042,0.042 -0.101,0.086 -0.377,0.321 -1.134,0.962 -1.669,1.412 c -2.682,-1.732 -4.065,-2.989 -5.391,-5.978 -0.295,-0.665 -0.554,-1.354 -0.677,-1.691 l 3.481,-2.979 c 1.193,-1.026 2.466,-1.193 4.058,-1.261 0.023,0 0.059,0 0.093,-0.004 l 0.263,-0.011 0.78,-0.033 1.079,-0.04 0.073,-0.672 -0.214,-0.099 c -0.189,-0.092 -0.414,-0.192 -0.626,-0.298 -0.213,-0.11 -0.392,-0.216 -0.518,-0.32 -0.642,-0.372 -0.932,-1.044 -0.002,-1.836 0.196,-0.171 0.538,-0.491 0.887,-0.801 0.353,-0.313 0.679,-0.585 0.865,-0.695 0.517,-0.433 1.428,-0.359 1.745,0.477 l 0.591,1.543 0.65,0.076 1.749,-2.529 c 1.624,0.822 2.398,1.427 3.042,3.23 0.133,0.369 0.252,0.815 0.327,1.098 L 36.172,31 36.159,31.212 c -0.012,0.242 -0.035,0.596 -0.087,0.973 l -0.035,0.26 0.244,0.094 c 0.658,0.247 1.421,0.65 1.784,1.078 2.019,2.4 2.144,3.11 5.472,7.256 2.563,3.193 6.797,7.579 7.898,8.708 l 0.235,0.244 0.234,-0.244 c 1.108,-1.14 5.324,-5.521 7.884,-8.708 3.33,-4.146 3.454,-4.856 5.475,-7.256 0.362,-0.428 1.12,-0.831 1.781,-1.078 l 0.244,-0.094 -0.034,-0.26 C 67.201,31.808 67.18,31.454 67.165,31.212 L 67.153,31 64.316,29.911 c 0.07,-0.283 0.194,-0.729 0.327,-1.098 0.641,-1.803 1.416,-2.408 3.031,-3.226 l 1.76,2.525 0.651,-0.076 0.59,-1.543 c 0.318,-0.841 1.227,-0.906 1.695,-0.512 0.232,0.145 0.56,0.418 0.912,0.73 0.347,0.31 0.693,0.63 0.89,0.801 0.932,0.796 0.635,1.467 0.045,1.802 -0.174,0.138 -0.355,0.244 -0.566,0.354 -0.213,0.106 -0.438,0.206 -0.631,0.298 l -0.208,0.099 0.071,0.672 1.079,0.04 0.781,0.033 0.26,0.011 c 0.035,0.004 0.073,0.004 0.098,0.004 1.585,0.068 2.862,0.235 4.054,1.261 l 3.481,2.979 c -0.123,0.337 -0.383,1.026 -0.678,1.691"
   id="path161" />
		<path
   fill="#ffffff"
   d="m 58.466,30.271 c -0.424,1.24 -1.494,1.827 -2.79,1.827 -0.828,0 -1.357,-0.518 -1.723,-1.26 0.085,1.144 -0.5,2.263 -1.644,2.263 -1.033,0 -1.993,-1.003 -1.993,-2.032 -0.462,0.846 -1.01,1.414 -1.942,1.414 -1.349,0 -2.108,-1.069 -2.338,-2.414 0.393,0.22 0.654,0.384 1.106,0.384 0.914,0 1.663,-0.384 1.95,-1.262 -0.228,-0.038 -0.449,-0.153 -0.449,-0.384 0,-0.576 0.393,-0.827 0.529,-1.382 -0.164,-0.165 -0.271,-0.34 -0.509,-0.34 -0.088,0 -0.165,0.03 -0.253,0.038 0,0.435 0.047,1.041 -0.384,1.041 -0.442,0 -0.567,-0.472 -0.73,-0.885 l -0.039,0.155 c -0.116,0.297 -0.239,0.614 -0.569,0.614 -0.334,0 -0.536,-0.347 -0.536,-0.682 0,-0.231 0.038,-0.367 0.038,-0.597 0,-0.076 -0.03,-0.153 -0.074,-0.23 -0.337,0.11 -0.57,0.107 -1.072,0.096 -1.645,-0.038 -2.029,-2.53 -2.029,-2.53 0,0 1.145,1.182 2.069,1.074 l 0.058,0.01 c -0.713,-0.738 -0.906,-2.654 -0.906,-2.654 l 3.945,-0.348 c 0.72,-0.061 0.911,-0.952 0.911,-0.952 -0.113,-1.028 1.12,-0.797 1.12,-0.797 2.711,-0.077 2.789,-2.646 2.789,-2.646 0.759,0.305 1.298,1.018 1.298,1.741 0,0.232 0.059,0.404 0.002,0.625 0.508,-0.251 0.634,-0.712 1.182,-0.846 0.943,-0.231 1.884,-0.223 2.375,-0.223 0.115,0.195 0.299,0.357 0.299,0.578 0,0.434 -0.222,0.915 -0.654,0.915 -0.105,0 -0.154,0.02 -0.259,0.01 0.057,0.365 -0.195,0.759 -0.559,0.759 -0.123,0 -0.277,-0.047 -0.395,-0.076 0.029,0.443 -0.191,0.777 -0.537,1.038 0.201,0.337 0.403,0.519 0.463,0.915 0.083,0.116 0.074,0.241 0.074,0.393 v 0.376 c 0,0.559 -0.038,0.875 -0.038,1.432 0,0.713 -0.404,1.097 -0.462,1.812 0.432,0.141 0.801,0.393 0.801,0.846 0,0.556 -0.53,0.702 -0.608,1.26 0.18,0.73 0.934,0.951 1.684,0.951 0.316,0 0.509,-0.038 0.799,-0.152 z"
   id="path163" />
		<path
   fill-rule="evenodd"
   clip-rule="evenodd"
   fill="#1c3b66"
   d="m 49.712,22.268 c 0,0 0.803,0.512 1.374,0.499 0.665,-0.016 1.53,-0.76 1.53,-0.76 0,0 -1.261,0 -1.569,-0.462 -0.193,0.567 -1.335,0.723 -1.335,0.723"
   id="path165" />
		<path
   fill-rule="evenodd"
   clip-rule="evenodd"
   fill="#1c3b66"
   d="m 43.591,24.99 c 0,0 0.519,0.894 1.144,1.106 1.568,0.528 2.788,-0.594 4.59,-0.539 1.11,0.033 2.451,1.391 2.829,0.347 0.379,-1.051 -1.258,-1.469 -2.442,-1.491 -1.916,-0.039 -3.409,1.491 -4.747,1.259 C 44.379,25.57 43.591,24.99 43.591,24.99"
   id="path167" />
		<path
   fill="#ffffff"
   d="m 58.46,83.054 c -0.423,1.24 -1.493,1.828 -2.789,1.828 -0.826,0 -1.357,-0.521 -1.724,-1.262 0.086,1.144 -0.502,2.262 -1.644,2.262 -1.029,0 -1.99,-1 -1.99,-2.031 -0.463,0.847 -1.011,1.415 -1.946,1.415 -1.346,0 -2.105,-1.066 -2.337,-2.413 0.397,0.221 0.654,0.383 1.109,0.383 0.915,0 1.662,-0.383 1.953,-1.26 -0.232,-0.039 -0.454,-0.154 -0.454,-0.386 0,-0.576 0.395,-0.827 0.529,-1.382 -0.164,-0.165 -0.268,-0.338 -0.51,-0.338 -0.087,0 -0.162,0.028 -0.25,0.039 0,0.431 0.049,1.038 -0.382,1.038 -0.445,0 -0.57,-0.473 -0.735,-0.884 l -0.036,0.153 c -0.116,0.296 -0.243,0.617 -0.57,0.617 -0.335,0 -0.538,-0.349 -0.538,-0.684 0,-0.231 0.038,-0.365 0.038,-0.596 0,-0.074 -0.026,-0.152 -0.074,-0.232 -0.336,0.11 -0.567,0.108 -1.071,0.097 -1.643,-0.037 -2.029,-2.532 -2.029,-2.532 0,0 1.146,1.185 2.07,1.078 l 0.057,0.01 c -0.715,-0.74 -0.906,-2.655 -0.906,-2.655 l 3.945,-0.347 c 0.723,-0.062 0.916,-0.951 0.916,-0.951 -0.117,-1.031 1.114,-0.8 1.114,-0.8 2.713,-0.076 2.79,-2.646 2.79,-2.646 0.762,0.307 1.299,1.02 1.299,1.743 0,0.229 0.056,0.402 0.002,0.627 0.508,-0.252 0.634,-0.713 1.182,-0.847 0.94,-0.232 1.885,-0.223 2.375,-0.223 0.116,0.193 0.299,0.357 0.299,0.578 0,0.433 -0.219,0.913 -0.653,0.913 -0.107,0 -0.156,0.021 -0.261,0.009 0.057,0.366 -0.192,0.762 -0.558,0.762 -0.126,0 -0.28,-0.048 -0.395,-0.078 0.03,0.443 -0.193,0.78 -0.539,1.039 0.203,0.337 0.403,0.521 0.463,0.914 0.088,0.117 0.076,0.241 0.076,0.396 v 0.373 c 0,0.56 -0.039,0.877 -0.039,1.435 0,0.712 -0.403,1.096 -0.463,1.809 0.436,0.142 0.8,0.393 0.8,0.847 0,0.558 -0.528,0.702 -0.604,1.259 0.182,0.732 0.932,0.954 1.681,0.954 0.318,0 0.511,-0.04 0.801,-0.157 z"
   id="path169" />
		<path
   fill-rule="evenodd"
   clip-rule="evenodd"
   fill="#1c3b66"
   d="m 49.707,75.049 c 0,0 0.805,0.513 1.375,0.501 0.667,-0.016 1.53,-0.761 1.53,-0.761 0,0 -1.259,0 -1.57,-0.461 -0.191,0.566 -1.335,0.721 -1.335,0.721"
   id="path171" />
		<path
   fill-rule="evenodd"
   clip-rule="evenodd"
   fill="#1c3b66"
   d="m 43.586,77.771 c 0,0 0.515,0.896 1.146,1.108 1.569,0.528 2.788,-0.595 4.592,-0.539 1.106,0.033 2.448,1.391 2.827,0.346 0.377,-1.051 -1.26,-1.469 -2.445,-1.493 -1.915,-0.037 -3.405,1.493 -4.743,1.261 -0.591,-0.102 -1.377,-0.683 -1.377,-0.683"
   id="path173" />
		<path
   fill-rule="evenodd"
   clip-rule="evenodd"
   fill="#ffffff"
   d="m 61.88,48.011 h -0.501 v 9.61 h 6.915 c 0.914,0 1.155,0.753 1.98,0.753 0.828,0 1.069,-0.753 1.983,-0.753 h 6.913 v -9.61 h -0.498 v 8.685 h -6.415 c -1.147,0 -1.13,0.906 -1.983,0.906 -0.848,0 -0.836,-0.906 -1.98,-0.906 H 61.88 Z m 8.953,7.998 c 0.002,-0.003 -0.087,-0.293 -0.087,-0.293 -0.187,-0.619 1.004,-1.292 2.09,-1.292 1.292,0 2.638,1.295 3.591,1.137 l 0.904,-0.153 0.015,-8.474 -0.894,0.125 c -0.534,0.069 -0.838,-0.256 -1.372,-0.421 -1.041,-0.317 -1.672,-0.82 -2.665,-0.82 -1.083,0 -1.746,0.69 -1.746,0.69 v 7.889 H 69.88 v -7.889 c 0,0 -1.081,-0.697 -1.744,-0.663 -2.061,0.105 -3.289,1.316 -4.064,1.214 l -0.997,-0.125 -0.008,8.474 1.058,0.153 c 1.144,0.164 2.295,-1.137 3.59,-1.137 1.084,0 2.274,0.671 2.089,1.292 l -0.084,0.293 c -0.038,0.134 0.21,0.472 0.291,0.472 0,10e-4 0.532,0.003 0.532,0 0.109,0 0.332,-0.343 0.29,-0.472"
   id="path175" />
		<path
   fill-rule="evenodd"
   clip-rule="evenodd"
   fill="#ffffff"
   d="m 24.052,48.011 h -0.499 v 9.61 h 6.914 c 0.915,0 1.155,0.753 1.979,0.753 0.829,0 1.07,-0.753 1.986,-0.753 h 6.913 v -9.61 h -0.502 v 8.685 h -6.411 c -1.148,0 -1.133,0.906 -1.986,0.906 -0.848,0 -0.835,-0.906 -1.979,-0.906 h -6.415 z m 8.955,7.998 c 0.001,-0.003 -0.091,-0.293 -0.091,-0.293 -0.183,-0.619 1.009,-1.292 2.092,-1.292 1.294,0 2.639,1.295 3.592,1.137 l 0.904,-0.153 0.011,-8.474 -0.888,0.125 c -0.536,0.069 -0.838,-0.256 -1.375,-0.421 -1.04,-0.317 -1.669,-0.82 -2.664,-0.82 -1.082,0 -1.747,0.69 -1.747,0.69 v 7.889 h -0.787 v -7.889 c 0,0 -1.083,-0.697 -1.745,-0.663 -2.062,0.105 -3.29,1.316 -4.064,1.214 l -0.996,-0.125 -0.007,8.474 1.057,0.153 c 1.143,0.164 2.297,-1.137 3.589,-1.137 1.085,0 2.272,0.671 2.092,1.292 l -0.088,0.293 c -0.037,0.134 0.213,0.472 0.29,0.472 0.002,10e-4 0.534,0.003 0.536,0 0.107,0 0.328,-0.343 0.289,-0.472"
   id="path177" />
	</g>
</g>
</svg>
